<svg id="Calque_1" data-name="Calque 1" xmlns="http://www.w3.org/2000/svg" viewBox="0 0 197.58 187.96"><title>NAlogo</title><path d="M103.82,78c-1.25.14-2.23.24-3.21.36l-4.06.5-4.06.52c-1.46.19-2.91.39-4.37.56s-2.78.32-4.17.48l-4.06.5-4.06.52L71.47,82l-1.73.22c-.48.06-.67-.06-.78-.58-.16-.74-.28-1.48-.4-2.22-.7-4.38-1.39-8.76-2.1-13.13-.38-2.33-.79-4.64-1.17-7a8.51,8.51,0,0,1,0-1.13c.79.07,1.2.64,1.7,1,2.28,1.7,4.52,3.44,6.77,5.17,1.36,1,2.72,2.07,4,3.15a1.1,1.1,0,0,0,1.36.16c3-1.43,6.08-2.84,9.16-4.17,2-.83,4-1.53,6-2.23q8.76-3.09,17.54-6.12a6.26,6.26,0,0,1,1.49-.3,1.39,1.39,0,0,1,1.39.7c.76,1.17,1.58,2.31,2.32,3.5,1.43,2.3,2.8,4.63,4.22,6.93a62.67,62.67,0,0,1,6.28,13.79c1.77,5.47,3.77,10.86,5.54,16.33,1.14,3.51,2.18,7.06,3.05,10.64s1.52,7.28,2.21,10.93c.52,2.75.94,5.52,1.4,8.28.15.9.28,1.82.38,2.73a1,1,0,0,0,.76.94q4,1.54,7.9,3.18c2,.82,4,1.7,5.94,2.57a117.84,117.84,0,0,1,16.9,9.69c5.35,3.51,10.62,7.14,15.69,11.05,1.84,1.41,3.61,2.93,5.37,4.44q3.24,2.78,6.4,5.62c1.58,1.43,3.1,2.91,4.62,4.39a5.33,5.33,0,0,1,.83,1.16.41.41,0,0,1-.39.64,4.29,4.29,0,0,1-1-.12c-3.25-.8-6.5-1.64-9.76-2.4q-9-2.08-18-4.09c-3.16-.71-6.34-1.37-9.52-2s-6.31-1.14-9.47-1.71-6.57-1.22-9.86-1.8c-3.73-.65-7.47-1.26-11.2-1.92-1.58-.28-3.15-.61-4.72-.92-4.65-.91-9.31-1.83-14-2.72-3.25-.63-6.51-1.23-9.76-1.83-4.16-.78-8.33-1.52-12.48-2.33q-8-1.58-16.07-3.22a108.19,108.19,0,0,1-17.61-5.48c-2.51-1-4.87-2.34-7.28-3.57-1.55-.8-3.09-1.62-4.59-2.53-2.43-1.46-4.84-3-7.21-4.52-3.82-2.49-7.62-5-11.39-7.55-3-2.06-6-4.16-8.94-6.37-2.12-1.61-4.11-3.4-6.1-5.18-2.5-2.23-4.94-4.53-7.4-6.81a6.14,6.14,0,0,1-.51-.51.93.93,0,0,1-.18-1.12c.24-.35.6-.3.94-.23,1.9.41,3.79.85,5.7,1.25,4.14.88,8.27,1.77,12.43,2.59,3.34.66,6.7,1.24,10.06,1.82s6.87,1.13,10.3,1.72c2.93.5,5.84,1,8.77,1.56,2.65.45,5.32.86,8,1.31,2.12.35,4.23.71,6.35,1.08,1.28.22,2.56.42,3.83.67.4.08.57-.13.75-.38.86-1.24,1.69-2.49,2.58-3.71,4.13-5.67,8.25-11.34,12.41-17,1.6-2.17,3.26-4.31,5-6.38,1.54-1.84,3.19-3.58,4.85-5.31C100.56,81.12,102.13,79.63,103.82,78Z" transform="translate(-7.01 -54.82)"/><path d="M135.84,162.83l2.45.45,15.46,3.06c4.28.86,8.56,1.74,12.84,2.59,4.69.93,9.38,1.83,14.06,2.75l5.33,1a4.58,4.58,0,0,1,.49.15c.58.2.64.27.49.89-.38,1.59-.72,3.2-1.19,4.77a107.51,107.51,0,0,1-3.54,10.28c-1.22,3-2.68,5.77-4.18,8.58a79.87,79.87,0,0,1-5.85,9.41c-1.84,2.54-3.81,5-5.78,7.45a40.08,40.08,0,0,1-3.45,3.8,82.67,82.67,0,0,1-9.6,8,130.14,130.14,0,0,1-11.87,7.34,76.25,76.25,0,0,1-9.85,4.33c-1.06.4-2.13.76-3.2,1.12-.67.22-.85.12-1-.56a70.42,70.42,0,0,0-3-8.05c-.81-2-1.69-4-2.52-6a23.55,23.55,0,0,0-3.41-5.7c-.57-.72-1.15-1.45-1.73-2.16a4.14,4.14,0,0,1-.8-2c-.13-.84-.17-1.7-.25-2.55s-.15-1.9-.27-2.85a8.43,8.43,0,0,0-2-4.32,15.93,15.93,0,0,0-1-1.26,2,2,0,0,1-.56-2c.48-1.85,1-3.69,1.54-5.53a2.48,2.48,0,0,1,.17-.37c.36-.74.53-.84,1.26-.48a17,17,0,0,0,5,1.26l.91.14a3.51,3.51,0,0,0,3-.86,32.64,32.64,0,0,0,5.55-6c1-1.49,1.94-3.06,2.85-4.63s1.79-3.24,2.66-4.87a12.13,12.13,0,0,1,2.88-3.3c1-.92,2-1.9,2.93-2.88a4.69,4.69,0,0,0,.71-1.13c.44-.86.36-1.05-.31-1.8-1.34-1.51-2.69-3-3.94-4.59a22.26,22.26,0,0,1-1.74-2.9C135.06,163,135.22,162.82,135.84,162.83Z" transform="translate(-7.01 -54.82)"/><path d="M102.33,242.69c-1.1,0-2.2,0-3.29,0-2.05-.1-4.1-.19-6.14-.39-2.41-.23-4.82-.47-7.2-.87-2-.34-4-.85-6-1.38a96.36,96.36,0,0,1-10.95-3.79,81.66,81.66,0,0,1-9.3-4.56,114.87,114.87,0,0,1-12.09-8.29c-.19-.14-.35-.32-.54-.47-1-.79-1-.79-.54-2a31.41,31.41,0,0,1,4.48-8.27,2.84,2.84,0,0,1,1.42-.93A6,6,0,0,0,56,208.41a25.6,25.6,0,0,0,1-3.23c.28-1.09.43-2.21.71-3.3a7.81,7.81,0,0,1,2.89-4,16.8,16.8,0,0,1,5.43-3,8,8,0,0,1,3.93-.26c4.25.68,8.44,1.65,12.62,2.67,3.84.93,7.69,1.89,11.53,2.85a9.13,9.13,0,0,1,1.21.51c.16.06.33.21.47.19a8.68,8.68,0,0,1,3.38.64c2.68.67,5.34,1.45,8,2.12a3.56,3.56,0,0,1,2.06,1.4,8.47,8.47,0,0,1,1.5,4.19c.23,1.73.41,3.46.63,5.18a3.54,3.54,0,0,0,.84,1.95,32.81,32.81,0,0,1,5.65,9.35c1,2.42,2.12,4.82,3.18,7.24a42.47,42.47,0,0,1,2,6.56c.18.69,0,.87-.74,1-2.27.46-4.53,1-6.82,1.35a47.24,47.24,0,0,1-6.61.74c-2.19,0-4.37.17-6.56.26Z" transform="translate(-7.01 -54.82)"/><path d="M99.84,176.33c-.12-2.1.24-4.26-.81-6.22a21.69,21.69,0,0,0-2.79-3.93,5.6,5.6,0,0,0-.59-.45c-.21.59.17.92.35,1.3.31.65.66,1.27,1,1.91a1,1,0,0,1-.15,1.2c-1.78,2.46-3.55,5-5.23,7.48a12.69,12.69,0,0,0-2.07,6,17.32,17.32,0,0,0,1.55,8.55c.75,1.69,1.59,3.34,2.39,5,.13.27.26.55.38.82-.26.3-.52.17-.77.11-3.55-.89-7.09-1.81-10.65-2.64s-7.19-1.6-10.8-2.35a22.06,22.06,0,0,0-3.25-.42,6.22,6.22,0,0,0-1.81.24,16.47,16.47,0,0,0-6.8,3.46,20.6,20.6,0,0,0-1.87,1.75,9.88,9.88,0,0,0-2.25,5.42,15.61,15.61,0,0,1-1.14,4.13,3.54,3.54,0,0,1-4.29,2.17,8.11,8.11,0,0,1-1.55-.53,3.22,3.22,0,0,1-.62-.52c.54-.15.92-.28,1.3-.35,2.77-.51,4.41-3,3.88-6a15,15,0,0,0-1.94-4.37,23,23,0,0,1-2.65-7,16,16,0,0,1,0-3.17,10.23,10.23,0,0,0,.06-1.12,13.16,13.16,0,0,0-1.35,3.88,33.76,33.76,0,0,0-.23,5.12,4.42,4.42,0,0,1-.19.86,4.87,4.87,0,0,1-.84-.28,7,7,0,0,1-3.32-3.64,7.49,7.49,0,0,1-.52-3.61,17.29,17.29,0,0,1,3.3-8.29,2.79,2.79,0,0,0,.08-.29c-.15,0-.28,0-.35.07A14.52,14.52,0,0,0,41.4,185a9.34,9.34,0,0,0-1.35,4.57,13.72,13.72,0,0,0,.5,3c.13.6.38,1.17.55,1.76a4.52,4.52,0,0,1,.09.75c-.2,0-.28,0-.32,0a10,10,0,0,1-3.39-4.78,8.1,8.1,0,0,1,0-4.34,15.1,15.1,0,0,1,1.83-4,39.69,39.69,0,0,1,7.33-8.55A11.56,11.56,0,0,1,50.75,171l2.77-.93c-.69-.57-1.32-1.12-2-1.64a5.3,5.3,0,0,1-2.1-3.85,9.5,9.5,0,0,1,2-6.93c1.53-1.93,3.07-3.85,4.68-5.71s3.26-3.51,4.87-5.28a1.09,1.09,0,0,1,1.35-.31c2.36.83,4.73,1.6,7.1,2.39a95.9,95.9,0,0,0,10.83,2.74c2.9.59,5.82,1.15,8.74,1.71,3.22.62,6.44,1.22,9.66,1.83l3.21.63a1.44,1.44,0,0,1,1.09.84,26.68,26.68,0,0,1,2.92,8.81,10.79,10.79,0,0,1,0,3,6.93,6.93,0,0,1-1.36,3.17,36.36,36.36,0,0,1-4.45,4.83S100,176.3,99.84,176.33Z" transform="translate(-7.01 -54.82)"/><path d="M22,122.21l2.41,1.7c3.38,2.39,6.73,4.82,10.14,7.17,3,2,5.94,4,9,5.95,2.4,1.52,4.88,2.91,7.36,4.29,2.07,1.14,4.2,2.18,6.29,3.27a2.54,2.54,0,0,1,.53.31.42.42,0,0,1,.09.63,2.51,2.51,0,0,1-.26.31c-1.15,1.22-2.32,2.43-3.45,3.67-2.08,2.27-4.19,4.52-6.19,6.86a11.82,11.82,0,0,0-2.8,5.18,8.26,8.26,0,0,0-.23,3.25,5.18,5.18,0,0,0,1.5,2.85c.8.81.91.81-.07,1.76-1.9,1.83-3.85,3.62-5.66,5.53s-3.28,3.68-4.81,5.6a15.63,15.63,0,0,0-3,5.59,6.48,6.48,0,0,0,.3,4.6,12.8,12.8,0,0,0,2.54,3.58L40,198.73c.46-.45.84-.84,1.23-1.2s.57-.46,1-.05c1.12,1,2.22,1.93,3.32,2.91l.6.56a.65.65,0,0,0,1,0l.4-.34c.24-.19.5-.13.58.14.26.91.51,1.84.69,2.77,0,.21-.18.5-.34.7A27.49,27.49,0,0,1,43.74,209a16.56,16.56,0,0,0,2.47,2.35c.76.57.7.6.19,1.38-1.24,1.89-2.45,3.79-3.65,5.7-.35.56-.5.63-1,.18s-1-1-1.52-1.53c-1.38-1.47-2.73-3-4.1-4.45a68.15,68.15,0,0,1-5.1-6.3,105.1,105.1,0,0,1-6.21-10.15A68.89,68.89,0,0,1,19,182.09c-.82-2.74-1.43-5.56-2-8.36-.49-2.34-.85-4.7-1.21-7.06-.16-1.08-.16-2.18-.27-3.27a110,110,0,0,1-.16-11.91c0-1.6.22-3.2.36-4.8.12-1.32.28-2.64.41-4a39.92,39.92,0,0,1,1.58-7.81c1.23-3.95,2.55-7.87,3.85-11.8A6.11,6.11,0,0,1,22,122.21Z" transform="translate(-7.01 -54.82)"/><path d="M188.93,152c-.05.09-.12.39-.29.45s-.42-.09-.59-.22c-2.57-1.88-5.08-3.83-7.68-5.65-3.42-2.4-6.86-4.76-10.36-7-3.84-2.5-7.78-4.84-11.84-7a121.94,121.94,0,0,0-11.3-5.13c-.61-.24-1.19-.52-1.8-.75a1.25,1.25,0,0,1-.85-1.13q-.72-4.8-1.58-9.59a161,161,0,0,0-4.24-17.3c-1.66-5.68-3.63-11.26-5.63-16.82-.85-2.38-1.71-4.77-2.54-7.15-.06-.16,0-.46,0-.53a.66.66,0,0,1,.55,0,118.18,118.18,0,0,1,12.24,5.28,62.87,62.87,0,0,1,8.18,5.11c2.19,1.57,4.31,3.24,6.45,4.89a19.82,19.82,0,0,1,1.73,1.45c2.44,2.35,4.92,4.67,7.28,7.1,1.35,1.4,2.51,3,3.72,4.51a95.53,95.53,0,0,1,5.8,8.2,80.17,80.17,0,0,1,5,9.45A61.76,61.76,0,0,1,184.5,129c1,3.47,1.94,7,2.71,10.5.54,2.46.77,5,1.12,7.49.21,1.55.38,3.11.57,4.67C188.91,151.71,188.91,151.77,188.93,152Z" transform="translate(-7.01 -54.82)"/><path d="M97.91,171.54a14.49,14.49,0,0,1,.27,2.08c0,1.33-.1,2.66-.15,4a4.12,4.12,0,0,0,0,.93.86.86,0,0,0,1.47.53,14.26,14.26,0,0,0,1.31-1.14,48.18,48.18,0,0,0,5.17-5.7,8.57,8.57,0,0,0,1.6-4.47,14.46,14.46,0,0,0-.34-3.87,27.65,27.65,0,0,0-2.31-7,6.48,6.48,0,0,1-.23-.62c1.33.22,2.54.4,3.74.62,2.85.52,5.7,1.05,8.55,1.61,4,.78,8,1.61,11.94,2.39a1.09,1.09,0,0,1,1,.93,11,11,0,0,0,2.14,3.94c1,1.28,2,2.58,3.07,3.85a7,7,0,0,0,1,1,1.41,1.41,0,0,1,.57,1.87,5.28,5.28,0,0,1-2,2.75c-.67.47-1.37.9-2.07,1.33a3.9,3.9,0,0,0-1.66,1.9c-1.65,4.12-4.15,7.77-6.4,11.56a3.78,3.78,0,0,1-4.12,1.82,25.46,25.46,0,0,1-3-.47c-.93-.22-1.81-.61-2.72-.9a9.71,9.71,0,0,0-1.19-.26,1.26,1.26,0,0,0-1.1.42A14.93,14.93,0,0,0,108.1,198c-.25,1-.45,2-.69,3s-.23.89-1.09.67c-3.17-.84-6.34-1.69-9.51-2.51a1.21,1.21,0,0,1-.88-.63,64.38,64.38,0,0,1-4.08-8.85,13.12,13.12,0,0,1-.07-8.66,13.93,13.93,0,0,1,1.45-2.82c1.31-2,2.71-3.94,4.08-5.91C97.44,172.05,97.6,171.89,97.91,171.54Zm23.37,13.11h.41c.52,0,.87-.27.92-.64a1.05,1.05,0,0,0-.71-.91,1,1,0,0,0-.3,0c-.54-.08-1.08-.13-1.62-.24a7.93,7.93,0,0,1-3.41-1.29,6.3,6.3,0,0,1-2.27-2.45.78.78,0,0,0-1-.49.87.87,0,0,0-.43,1.14,4.8,4.8,0,0,0,.75,1.32A10.47,10.47,0,0,0,121.28,184.65Z" transform="translate(-7.01 -54.82)"/><path d="M93.09,84.26c-.31.42-.53.75-.79,1.06-1.69,2.06-3.42,4.09-5.08,6.18q-3.51,4.41-6.91,8.91c-2.38,3.13-4.71,6.3-7,9.45a1.33,1.33,0,0,1-1.54.64c-3.08-.58-6.19-1-9.28-1.54-2.59-.44-5.17-.92-7.76-1.35-2.25-.39-4.51-.73-6.77-1.11s-4.5-.77-6.75-1.15l-6.66-1.11c-.34,0-.67-.12-1-.18-.89-.17-.93-.24-.36-1a31.38,31.38,0,0,1,2.13-2.63c2.6-2.72,5.16-5.49,7.9-8.07a83.05,83.05,0,0,1,8.71-7.16,69.16,69.16,0,0,1,7-4.44q2-1.1,4.09-2.16c.69-.35.8-.27.89.5.28,2.48.55,5,.83,7.42.08.7.2.86.9.82,1.05-.06,2.11-.17,3.15-.3,2.3-.3,4.6-.64,6.89-1,1.89-.26,3.78-.52,5.68-.76,1.39-.17,2.78-.31,4.17-.46l4.87-.58c.65-.07,1.29-.17,1.94-.22A3,3,0,0,1,93.09,84.26Z" transform="translate(-7.01 -54.82)"/></svg>